<?xml version="1.0" encoding="UTF-8"?>
<svg width="16px" height="17px" viewBox="0 0 16 17" version="1.1" xmlns="http://www.w3.org/2000/svg" xmlns:xlink="http://www.w3.org/1999/xlink">
    <title>Filled / calendar</title>
    <g id="Page-1" stroke="none" stroke-width="1" fill="none" fill-rule="evenodd">
        <g id="01" transform="translate(-30.000000, -383.000000)" fill="#AAAAAF">
            <g id="Group" transform="translate(28.000000, 379.000000)">
                <g id="Filled-/-calendar" transform="translate(2.000000, 4.000000)">
                    <path d="M5.0009151,0.5 L5.0009151,1.9974976 L10.9990234,1.9974976 L10.9990234,0.5 L12.4990234,0.5 L12.4990234,1.9974976 L14.9999996,1.9974976 C15.5522461,1.9974976 15.9999996,2.4451904 15.9999996,2.9974976 L15.9999996,2.9974976 L15.9999996,15.9974976 C15.9999996,16.5497437 15.5522456,16.9974976 14.9999996,16.9974976 L14.9999996,16.9974976 L0.9999996,16.9974976 C0.4476924,16.9974976 -4.00000016e-07,16.5497437 -4.00000016e-07,15.9974976 L-4.00000016e-07,15.9974976 L-4.00000016e-07,2.9974976 C-4.00000016e-07,2.4451905 0.4476924,1.9974976 0.9999996,1.9974976 L0.9999996,1.9974976 L3.5009151,1.9974976 L3.5009151,0.5 L5.0009151,0.5 Z M15,6.6164551 L1,6.6164551 L1,15.9974976 L15,15.9974976 L15,6.6164551 Z M6.270813,8.1746215 C7.9464722,8.1746215 7.9958496,9.5720824 7.9958496,9.7457885 L7.99561004,9.7752747 C7.99215899,9.96582069 7.93960039,10.670446 7.1499634,11.0010986 C7.1499634,11.0010986 8.3170777,11.2460938 8.3035889,12.515625 C8.2901001,13.7850952 7.1671758,14.4263916 6.368042,14.4263916 C5.5689082,14.4263916 4.3565669,14.2252808 4.1929927,12.4796143 L4.1929927,12.4796143 L5.315124,12.4796143 L5.315124,12.4796143 L5.31550445,12.5109661 C5.32132097,12.6714726 5.39585329,13.3935682 6.2662964,13.3902588 C7.2455444,13.3865356 7.1859743,12.5120238 7.1859743,12.5120238 C7.1859743,12.5120238 7.2890016,11.590454 5.8172604,11.540161 L5.8172604,11.540161 L5.8172604,10.5682982 C5.8172604,10.5682982 6.8106691,10.6239012 6.8494264,9.8267821 C6.8494264,9.8267821 6.84970798,9.82428264 6.85003243,9.81961699 L6.85058411,9.7682948 C6.84507822,9.62432606 6.777002,9.2644042 6.2338868,9.2644042 C6.2338868,9.2644042 5.7211299,9.2258911 5.5212398,9.7943725 L5.5212398,9.7943725 L4.4323726,9.7943725 C4.4323726,9.7943725 4.5951538,8.1746215 6.270813,8.1746215 Z M11.1929932,8.3248901 L11.1929932,14.2811279 L10.0672607,14.2811279 L10.0672607,9.3894653 L8.8407593,9.3894653 L9.4958496,8.3248901 L11.1929932,8.3248901 Z" id="Combined-Shape"></path>
                </g>
            </g>
        </g>
    </g>
</svg>