<?xml version="1.0" encoding="UTF-8"?>
<svg width="36px" height="35px" viewBox="0 0 36 35" version="1.1" xmlns="http://www.w3.org/2000/svg" xmlns:xlink="http://www.w3.org/1999/xlink">
    <title>Group 6</title>
    <defs>
        <polygon id="path-1" points="0 0.328 14.3562252 0.328 14.3562252 17.9997 0 17.9997"></polygon>
        <filter x="-4.3%" y="-2.4%" width="108.6%" height="104.8%" filterUnits="objectBoundingBox" id="filter-3">
            <feOffset dx="0" dy="0" in="SourceAlpha" result="shadowOffsetOuter1"></feOffset>
            <feGaussianBlur stdDeviation="2.5" in="shadowOffsetOuter1" result="shadowBlurOuter1"></feGaussianBlur>
            <feColorMatrix values="0 0 0 0 0   0 0 0 0 0   0 0 0 0 0  0 0 0 0.1 0" type="matrix" in="shadowBlurOuter1" result="shadowMatrixOuter1"></feColorMatrix>
            <feMerge>
                <feMergeNode in="shadowMatrixOuter1"></feMergeNode>
                <feMergeNode in="SourceGraphic"></feMergeNode>
            </feMerge>
        </filter>
        <polygon id="path-4" points="0 0.947625 19.9197647 0.947625 19.9197647 19 0 19"></polygon>
    </defs>
    <g id="Page-1" stroke="none" stroke-width="1" fill="none" fill-rule="evenodd">
        <g id="23" transform="translate(-15.000000, -140.000000)">
            <g id="bg" transform="translate(23.000000, 65.000000)">
                <g id="1" transform="translate(0.000000, 93.000000)">
                    <text id="장소리스크" font-family="AppleSDGothicNeo-Regular, Apple SD Gothic Neo" font-size="12" font-weight="normal" line-spacing="27" fill="#2A2C2E">
                        <tspan x="22" y="11">장소리스크</tspan>
                    </text>
                    <g id="Group-6" transform="translate(0.000000, 1.000000)">
                        <path d="M7.1775,3.9006 C5.6585,3.9006 4.4275,5.1316 4.4275,6.6506 C4.4275,8.1696 5.6585,9.4006 7.1775,9.4006 C8.6975,9.4006 9.9275,8.1696 9.9275,6.6506 C9.9275,5.1316 8.6975,3.9006 7.1775,3.9006 M7.1775,4.9006 C8.1435,4.9006 8.9275,5.6856 8.9275,6.6506 C8.9275,7.6156 8.1435,8.4006 7.1775,8.4006 C6.2125,8.4006 5.4275,7.6156 5.4275,6.6506 C5.4275,5.6856 6.2125,4.9006 7.1775,4.9006" id="Fill-1" fill="#AAAAAF"></path>
                        <g id="Group-5" transform="translate(0.000000, 0.672100)">
                            <mask id="mask-2" fill="white">
                                <use xlink:href="#path-1"></use>
                            </mask>
                            <g id="Clip-4"></g>
                            <path d="M1.1999,16.8017 L1.8049,14.4377 C1.8569,14.2357 2.0399,14.0937 2.2489,14.0937 L4.9589,14.0937 C5.2919,14.5757 5.6259,15.0407 5.9499,15.4837 C6.2399,15.8787 6.6879,16.1057 7.1789,16.1077 L7.1819,16.1077 C7.6719,16.1077 8.1189,15.8817 8.4109,15.4887 C8.7159,15.0777 9.0569,14.6067 9.4129,14.0937 L12.1069,14.0937 C12.3159,14.0937 12.4989,14.2357 12.5509,14.4377 L13.1579,16.8007 L1.1999,16.8017 Z M7.1789,1.5277 C9.6869,1.5277 11.7279,3.5687 11.7279,6.0777 C11.7279,8.0107 10.2879,10.9367 7.4479,14.7737 C7.3819,14.8627 7.2929,14.9077 7.1829,14.9077 C7.0719,14.9067 6.9829,14.8617 6.9179,14.7727 C5.8569,13.3277 2.6279,8.9297 2.6279,6.0777 C2.6279,3.5687 4.6699,1.5277 7.1789,1.5277 L7.1789,1.5277 Z M14.3179,16.5047 L13.7129,14.1397 C13.5239,13.4057 12.8639,12.8947 12.1069,12.8947 L10.2149,12.8947 C11.5959,10.7427 12.9289,8.1607 12.9289,6.0777 C12.9289,2.9067 10.3489,0.3277 7.1789,0.3277 C4.0079,0.3277 1.4289,2.9067 1.4289,6.0777 C1.4289,8.1037 2.6859,10.6057 4.1579,12.8947 L2.2489,12.8947 C1.4909,12.8947 0.8309,13.4057 0.6429,14.1407 L0.0379,16.5047 C-0.0551,16.8657 0.0239,17.2427 0.2529,17.5367 C0.4809,17.8317 0.8259,17.9997 1.1989,17.9997 L13.1579,17.9997 C13.5299,17.9997 13.8749,17.8317 14.1029,17.5367 C14.3329,17.2427 14.4109,16.8657 14.3179,16.5047 L14.3179,16.5047 Z" id="Fill-3" fill="#AAAAAF" mask="url(#mask-2)"></path>
                        </g>
                    </g>
                </g>
            </g>
            <rect id="Rectangle" fill="#FFFFFF" x="0" y="65" width="244" height="655"></rect>
            <g id="LNB" filter="url(#filter-3)" transform="translate(0.000000, 81.000000)">
                <g id="2" transform="translate(0.000000, 50.000000)">
                    <g id="Group-6" transform="translate(23.000000, 17.000000)">
                        <g id="Group-3">
                            <mask id="mask-5" fill="white">
                                <use xlink:href="#path-4"></use>
                            </mask>
                            <g id="Clip-2"></g>
                            <path d="M18.7432941,0.947625 L1.21388235,0.947625 C0.564470588,0.947625 0.0374117647,1.479625 0.0374117647,2.135125 L-0.000235294118,14.25 C-0.000235294118,14.9055 0.526823529,15.4375 1.17623529,15.4375 L4.74682353,15.4375 L4.74682353,19 L9.36447059,15.4375 L18.7068235,15.4375 C19.3562353,15.4375 19.8832941,14.9055 19.8832941,14.25 L19.9197647,2.135125 C19.9197647,1.479625 19.3938824,0.947625 18.7432941,0.947625 M18.508,2.372625 L18.4715294,14.0125 L9.36447059,14.0125 L8.88682353,14.0125 L8.508,14.3058125 L6.15858824,16.1179375 L6.15858824,15.4375 L6.15858824,14.0125 L4.74682353,14.0125 L1.41270588,14.0125 L1.448,2.372625 L18.508,2.372625" id="Fill-1" fill="#8E8E93" mask="url(#mask-5)"></path>
                        </g>
                        <path d="M9.19251337,9.58272524 L10.8008021,9.58272524 L10.8008021,4 L9.19251337,4 L9.19251337,9.58272524 Z M9.9973262,10.2248697 C10.2727273,10.2248697 10.5080214,10.3106478 10.7045455,10.4833954 C10.8997326,10.6573343 11,10.8658228 11,11.1124348 C11,11.3542815 10.8997326,11.5627699 10.7045455,11.7379002 C10.5080214,11.9130305 10.2727273,12 9.9973262,12 C9.72192513,12 9.48663102,11.9142219 9.29144385,11.7414743 C9.09759358,11.5675354 9,11.3578555 9,11.1124348 C9,10.8658228 9.09759358,10.6573343 9.29144385,10.4833954 C9.48663102,10.3106478 9.72192513,10.2248697 9.9973262,10.2248697 L9.9973262,10.2248697 Z" id="Fill-4" fill="#8E8E93"></path>
                    </g>
                </g>
            </g>
        </g>
    </g>
</svg>