<?xml version="1.0" encoding="UTF-8"?>
<svg width="32px" height="37px" viewBox="0 0 32 37" version="1.1" xmlns="http://www.w3.org/2000/svg" xmlns:xlink="http://www.w3.org/1999/xlink">
    <title>Group 7</title>
    <defs>
        <polygon id="path-1" points="0.0008 0.0002 34 0.0002 34 34 0.0008 34"></polygon>
        <filter x="-4.3%" y="-2.4%" width="108.6%" height="104.8%" filterUnits="objectBoundingBox" id="filter-3">
            <feOffset dx="0" dy="0" in="SourceAlpha" result="shadowOffsetOuter1"></feOffset>
            <feGaussianBlur stdDeviation="2.5" in="shadowOffsetOuter1" result="shadowBlurOuter1"></feGaussianBlur>
            <feColorMatrix values="0 0 0 0 0   0 0 0 0 0   0 0 0 0 0  0 0 0 0.1 0" type="matrix" in="shadowBlurOuter1" result="shadowMatrixOuter1"></feColorMatrix>
            <feMerge>
                <feMergeNode in="shadowMatrixOuter1"></feMergeNode>
                <feMergeNode in="SourceGraphic"></feMergeNode>
            </feMerge>
        </filter>
        <polygon id="path-4" points="0 0 16 0 16 21 0 21"></polygon>
    </defs>
    <g id="Page-1" stroke="none" stroke-width="1" fill="none" fill-rule="evenodd">
        <g id="23" transform="translate(-17.000000, -188.000000)">
            <g id="bg" transform="translate(23.000000, 65.000000)">
                <g id="1" transform="translate(0.000000, 93.000000)">
                    <g id="Group-3" transform="translate(1.000000, 41.000000)">
                        <rect id="Rectangle-Copy" stroke="#CDD1D7" fill="#FFFFFF" x="0.5" y="0.5" width="311" height="84" rx="4"></rect>
                        <g id="나쁨" transform="translate(15.000000, 25.000000)">
                            <circle id="Oval" fill="#FFFFFF" cx="17" cy="17" r="17"></circle>
                            <g id="Group-10">
                                <path d="M12.8367347,18.0408163 C12.8367347,16.6994032 11.7495764,15.6122449 10.4103551,15.6122449 C9.06675017,15.6122449 7.97959184,16.6994032 7.97959184,18.0408163 C7.97959184,19.3822294 9.06675017,20.4693878 10.4103551,20.4693878 C11.7495764,20.4693878 12.8367347,19.3822294 12.8367347,18.0408163" id="Fill-1" fill="#000000"></path>
                                <path d="M25.3265306,18.0408163 C25.3265306,16.6994032 24.2393723,15.6122449 22.8979592,15.6122449 C21.5565461,15.6122449 20.4693878,16.6994032 20.4693878,18.0408163 C20.4693878,19.3822294 21.5565461,20.4693878 22.8979592,20.4693878 C24.2393723,20.4693878 25.3265306,19.3822294 25.3265306,18.0408163" id="Fill-3" fill="#000000"></path>
                                <path d="M22.7698474,27.755102 C22.5579208,27.755102 22.3501094,27.6840752 22.1896213,27.5420215 C19.6053521,25.2600568 15.1260893,25.2127056 12.4944967,27.4382131 C12.1652904,27.7150356 11.6467906,27.7059296 11.327872,27.4127163 C11.015126,27.1213241 11.0295288,26.6605603 11.3566776,26.3837377 C12.9595006,25.0305855 15.0643631,24.2857143 17.2782753,24.2857143 C19.5703739,24.2857143 21.726675,25.0761155 23.3500734,26.5112218 C23.6710495,26.7953292 23.6731071,27.2579142 23.3521309,27.5420215 C23.1916429,27.6840752 22.9817739,27.755102 22.7698474,27.755102" id="Fill-5" fill="#000000"></path>
                                <g id="Group-9">
                                    <mask id="mask-2" fill="white">
                                        <use xlink:href="#path-1"></use>
                                    </mask>
                                    <g id="Clip-8"></g>
                                    <path d="M17.0008,31.6002 C8.9508,31.6002 2.3988,25.0502 2.3988,17.0002 C2.3988,15.1562 2.7588,13.3962 3.3848,11.7702 C7.9508,11.4222 12.0648,9.4762 15.1688,6.4782 C19.0388,11.2782 24.8508,14.4182 31.4088,14.7622 C31.5228,15.4922 31.6008,16.2362 31.6008,17.0002 C31.6008,25.0502 25.0488,31.6002 17.0008,31.6002 M33.8368,14.7662 C32.7388,6.4342 25.6288,0.0002 17.0008,0.0002 C9.4308,0.0002 3.0248,4.9502 0.8208,11.7882 C0.2928,13.4322 0.0008,15.1802 0.0008,17.0002 C0.0008,26.3902 7.6128,34.0002 17.0008,34.0002 C26.3888,34.0002 34.0008,26.3902 34.0008,17.0002 C34.0008,16.2402 33.9328,15.4982 33.8368,14.7662" id="Fill-7" fill="#000000" mask="url(#mask-2)"></path>
                                </g>
                            </g>
                        </g>
                    </g>
                </g>
            </g>
            <rect id="Rectangle" fill="#FFFFFF" x="0" y="65" width="244" height="655"></rect>
            <g id="LNB" filter="url(#filter-3)" transform="translate(0.000000, 81.000000)">
                <g id="3" transform="translate(0.000000, 100.000000)">
                    <g id="Group-7" transform="translate(25.000000, 15.000000)">
                        <polygon id="Fill-1" fill="#8E8E93" points="4 18 6 18 6 11 4 11"></polygon>
                        <polygon id="Fill-2" fill="#8E8E93" points="7 18 9 18 9 7 7 7"></polygon>
                        <polygon id="Fill-3" fill="#8E8E93" points="10 18 12 18 12 9 10 9"></polygon>
                        <g id="Group-6">
                            <mask id="mask-5" fill="white">
                                <use xlink:href="#path-4"></use>
                            </mask>
                            <g id="Clip-5"></g>
                            <path d="M14.5442414,19.5587647 L1.45454545,19.5587647 L1.45454545,3.22476408 L3.46834483,3.22476408 L3.46834483,4.80411782 L12.4722117,4.80411782 L12.4722117,3.22476408 L14.5442414,3.22476408 L14.5442414,19.5587647 Z M4.68147699,3.60308836 L11.2590795,3.60308836 L11.2590795,1.20102945 L4.68147699,1.20102945 L4.68147699,3.60308836 Z M14.7868678,1.78352874 L12.4722117,1.78352874 L12.4722117,0 L3.46834483,0 L3.46834483,1.78352874 L1.21313216,1.78352874 C0.542270074,1.78352874 0,2.32158993 0,2.98455819 L0,19.7989705 C0,20.4631398 0.542270074,21 1.21313216,21 L14.7868678,21 C15.4565168,21 16,20.4631398 16,19.7989705 L16,2.98455819 C16,2.32158993 15.4565168,1.78352874 14.7868678,1.78352874 L14.7868678,1.78352874 Z" id="Fill-4" fill="#8E8E93" mask="url(#mask-5)"></path>
                        </g>
                    </g>
                </g>
            </g>
        </g>
    </g>
</svg>