<?xml version="1.0" encoding="UTF-8"?>
<svg width="17px" height="17px" viewBox="0 0 17 17" version="1.1" xmlns="http://www.w3.org/2000/svg" xmlns:xlink="http://www.w3.org/1999/xlink">
    <title>Group 6</title>
    <defs>
        <polygon id="path-1" points="0.0004 0 17 0 17 16.9998 0.0004 16.9998"></polygon>
    </defs>
    <g id="Page-1" stroke="none" stroke-width="1" fill="none" fill-rule="evenodd">
        <g id="05(11/19일-정리)-1" transform="translate(-30.000000, -662.000000)">
            <g id="3" transform="translate(21.000000, 661.000000)">
                <g id="Group-6" transform="translate(9.000000, 1.000000)">
                    <path d="M9.7904,9.099 L7.9034,7.212 L11.2244,5.775 L9.7904,9.099 Z M7.2894,7.729 L9.2714,9.712 L5.7764,11.222 L7.2894,7.729 Z M11.2434,4.897 L6.8054,6.838 L4.8834,11.276 C4.7134,11.816 5.2334,12.292 5.7244,12.115 L10.2014,10.16 L12.1144,5.725 C12.2844,5.249 11.7914,4.671 11.2434,4.897 L11.2434,4.897 Z" id="Fill-1" fill="#AAAAAF"></path>
                    <g id="Group-5" transform="translate(0.000000, 0.000100)">
                        <mask id="mask-2" fill="white">
                            <use xlink:href="#path-1"></use>
                        </mask>
                        <g id="Clip-4"></g>
                        <path d="M8.5004,-0.0002 C3.8054,-0.0002 0.0004,3.8058 0.0004,8.4998 C0.0004,13.1948 3.8054,16.9998 8.5004,16.9998 C13.1944,16.9998 17.0004,13.1948 17.0004,8.4998 C17.0004,3.8058 13.1944,-0.0002 8.5004,-0.0002 M8.5004,1.1998 C12.5244,1.1998 15.8004,4.4748 15.8004,8.4998 C15.8004,12.5248 12.5244,15.7998 8.5004,15.7998 C4.4754,15.7998 1.1994,12.5248 1.1994,8.4998 C1.1994,4.4748 4.4754,1.1998 8.5004,1.1998" id="Fill-3" fill="#AAAAAF" mask="url(#mask-2)"></path>
                    </g>
                </g>
            </g>
        </g>
    </g>
</svg>