<?xml version="1.0" encoding="UTF-8"?>
<svg width="25px" height="25px" viewBox="0 0 25 25" version="1.1" xmlns="http://www.w3.org/2000/svg" xmlns:xlink="http://www.w3.org/1999/xlink">
    <title>icon / 20 / more / outlineed</title>
    <g id="Page-1" stroke="none" stroke-width="1" fill="none" fill-rule="evenodd">
        <g id="01" transform="translate(-299.000000, -379.000000)">
            <g id="Group" transform="translate(28.000000, 379.000000)">
                <g id="icon-/-20-/-more-/-outlineed" transform="translate(271.000000, 0.000000)">
                    <polygon id="Stroke-1" points="0.18 24.18 24.18 24.18 24.18 0.18 0.18 0.18"></polygon>
                    <path d="M12.0102,16.38 C12.8382,16.38 13.5102,17.052 13.5102,17.88 C13.5102,18.708 12.8382,19.38 12.0102,19.38 C11.1822,19.38 10.5102,18.708 10.5102,17.88 C10.5102,17.052 11.1822,16.38 12.0102,16.38 Z M12.0102,10.68 C12.8382,10.68 13.5102,11.352 13.5102,12.18 C13.5102,13.008 12.8382,13.68 12.0102,13.68 C11.1822,13.68 10.5102,13.008 10.5102,12.18 C10.5102,11.352 11.1822,10.68 12.0102,10.68 Z M12.0102,4.98 C12.8382,4.98 13.5102,5.652 13.5102,6.48 C13.5102,7.308 12.8382,7.98 12.0102,7.98 C11.1822,7.98 10.5102,7.308 10.5102,6.48 C10.5102,5.652 11.1822,4.98 12.0102,4.98 Z" id="Combined-Shape" fill="#8E8E93"></path>
                </g>
            </g>
        </g>
    </g>
</svg>