<?xml version="1.0" encoding="UTF-8"?>
<svg width="16px" height="16px" viewBox="0 0 16 16" version="1.1" xmlns="http://www.w3.org/2000/svg" xmlns:xlink="http://www.w3.org/1999/xlink">
    <title>Group 3</title>
    <defs>
        <rect id="path-1" x="0" y="0" width="314" height="38" rx="4"></rect>
        <filter x="-2.2%" y="-13.2%" width="104.5%" height="136.8%" filterUnits="objectBoundingBox" id="filter-2">
            <feOffset dx="0" dy="2" in="SourceAlpha" result="shadowOffsetOuter1"></feOffset>
            <feGaussianBlur stdDeviation="2" in="shadowOffsetOuter1" result="shadowBlurOuter1"></feGaussianBlur>
            <feComposite in="shadowBlurOuter1" in2="SourceAlpha" operator="out" result="shadowBlurOuter1"></feComposite>
            <feColorMatrix values="0 0 0 0 0.129411765   0 0 0 0 0.145098039   0 0 0 0 0.160784314  0 0 0 0.06 0" type="matrix" in="shadowBlurOuter1"></feColorMatrix>
        </filter>
        <polygon id="path-3" points="0.0006 -0.0002 15.7289848 -0.0002 15.7289848 15.7905 0.0006 15.7905"></polygon>
    </defs>
    <g id="Page-1" stroke="none" stroke-width="1" fill="none" fill-rule="evenodd">
        <g id="01" transform="translate(-144.000000, -312.000000)">
            <g id="Icon-/-Filled-/-done-Copy-3" transform="translate(23.000000, 301.000000)">
                <g id="BG">
                    <use fill="black" fill-opacity="1" filter="url(#filter-2)" xlink:href="#path-1"></use>
                    <rect stroke="#CDD1D7" stroke-width="0.794117647" stroke-linejoin="square" fill="#FFFFFF" fill-rule="evenodd" x="0.397058824" y="0.397058824" width="313.205882" height="37.2058824" rx="4"></rect>
                </g>
                <g id="Group-3" transform="translate(121.000000, 11.000000)">
                    <mask id="mask-4" fill="white">
                        <use xlink:href="#path-3"></use>
                    </mask>
                    <g id="Clip-2"></g>
                    <path d="M14.0696,3.9015 L13.5176,4.4605 L11.2726,2.2145 L11.8226,1.6655 C12.2626,1.2255 13.2666,0.8675 14.0646,1.6655 C14.6786,2.2795 14.6816,3.2835 14.0696,3.9015 L14.0696,3.9015 Z M3.4996,14.5905 L1.2006,14.5905 L1.2006,12.2875 L10.4246,3.0635 L12.6736,5.3125 L3.4996,14.5905 Z M14.9136,0.8165 C13.5896,-0.5075 11.7996,-0.0095 10.9736,0.8165 L0.0006,11.7905 L0.0006,15.7905 L4.0006,15.7905 L14.9236,4.7455 C16.0016,3.6555 15.9966,1.9005 14.9136,0.8165 L14.9136,0.8165 Z" id="Fill-1" fill="#FA6400" mask="url(#mask-4)"></path>
                </g>
            </g>
        </g>
    </g>
</svg>