<?xml version="1.0" encoding="UTF-8"?>
<svg width="50px" height="50px" viewBox="0 0 50 50" version="1.1" xmlns="http://www.w3.org/2000/svg" xmlns:xlink="http://www.w3.org/1999/xlink">
    <title>안전</title>
    <g id="Page-1" stroke="none" stroke-width="1" fill="none" fill-rule="evenodd">
        <g id="25(11/24일-정리)" transform="translate(-50.000000, -141.000000)">
            <g id="안전" transform="translate(50.000000, 141.000000)">
                <g id="Group-10" fill="#000000">
                    <path d="M18.877551,26.5306122 C18.877551,24.5579459 17.2787888,22.9591837 15.3093458,22.9591837 C13.3334561,22.9591837 11.7346939,24.5579459 11.7346939,26.5306122 C11.7346939,28.5032786 13.3334561,30.1020408 15.3093458,30.1020408 C17.2787888,30.1020408 18.877551,28.5032786 18.877551,26.5306122" id="Fill-1"></path>
                    <path d="M37.244898,26.5306122 C37.244898,24.5579459 35.6461357,22.9591837 33.6734694,22.9591837 C31.7008031,22.9591837 30.1020408,24.5579459 30.1020408,26.5306122 C30.1020408,28.5032786 31.7008031,30.1020408 33.6734694,30.1020408 C35.6461357,30.1020408 37.244898,28.5032786 37.244898,26.5306122" id="Fill-3"></path>
                    <path d="M33.4850696,40.8163265 C33.173413,40.8163265 32.8678079,40.7118753 32.631796,40.5029728 C28.8314002,37.1471423 22.244249,37.0775082 18.3742599,40.3503134 C17.890133,40.7574053 17.1276332,40.7440141 16.6586353,40.312818 C16.1987148,39.8843002 16.2198953,39.2067063 16.7009964,38.7996143 C19.0580891,36.8096845 22.1534752,35.7142857 25.4092284,35.7142857 C28.7799617,35.7142857 31.9509926,36.8766404 34.3383432,38.9870909 C34.8103669,39.4048958 34.8133927,40.0851679 34.341369,40.5029728 C34.1053572,40.7118753 33.7967263,40.8163265 33.4850696,40.8163265" id="Fill-5" transform="translate(25.510204, 38.265306) rotate(-180.000000) translate(-25.510204, -38.265306) "></path>
                    <g id="Group-9">
                        <path d="M25.0011765,46.4708824 C13.1629412,46.4708824 3.52764706,36.8385294 3.52764706,25.0002941 C3.52764706,22.2885294 4.05705882,19.7002941 4.97764706,17.3091176 C11.6923529,16.7973529 17.7423529,13.9355882 22.3070588,9.52676471 C27.9982353,16.5855882 36.5452941,21.2032353 46.1894118,21.7091176 C46.3570588,22.7826471 46.4717647,23.8767647 46.4717647,25.0002941 C46.4717647,36.8385294 36.8364706,46.4708824 25.0011765,46.4708824 M49.76,21.715 C48.1452941,9.46205882 37.6894118,0.000294117647 25.0011765,0.000294117647 C13.8688235,0.000294117647 4.44823529,7.27970588 1.20705882,17.3355882 C0.430588235,19.7532353 0.00117647059,22.3238235 0.00117647059,25.0002941 C0.00117647059,38.8091176 11.1952941,50.0002941 25.0011765,50.0002941 C38.8070588,50.0002941 50.0011765,38.8091176 50.0011765,25.0002941 C50.0011765,23.8826471 49.9011765,22.7914706 49.76,21.715" id="Fill-7"></path>
                    </g>
                </g>
            </g>
        </g>
    </g>
</svg>