<?xml version="1.0" encoding="UTF-8"?>
<svg width="51px" height="50px" viewBox="0 0 51 50" version="1.1" xmlns="http://www.w3.org/2000/svg" xmlns:xlink="http://www.w3.org/1999/xlink">
    <title>Group 10</title>
    <defs>
        <polygon id="path-1" points="0.00116458705 0.000294117647 49.4949495 0.000294117647 49.4949495 50 0.00116458705 50"></polygon>
    </defs>
    <g id="Page-1" stroke="none" stroke-width="1" fill="none" fill-rule="evenodd">
        <g id="25(11/24일-정리)" transform="translate(-50.000000, -536.000000)">
            <g id="Group-10" transform="translate(50.252525, 536.000000)">
                <path d="M32.8834414,40.9090909 C32.578049,40.9090909 32.2785866,40.8027406 32.0473186,40.5900399 C28.3233106,37.1731943 21.8685611,37.102294 18.0763587,40.4346048 C17.6019628,40.8490984 16.8547892,40.8354637 16.3952182,40.3964277 C15.9445421,39.9601186 15.9652969,39.2702049 16.4367278,38.8557112 C18.746443,36.8296008 21.7796119,35.7142857 24.9699244,35.7142857 C28.272906,35.7142857 31.3801993,36.8977741 33.7195642,39.0465964 C34.1821002,39.4719978 34.1850652,40.1646385 33.7225292,40.5900399 C33.4912611,40.8027406 33.1888337,40.9090909 32.8834414,40.9090909" id="Fill-5" fill="#000000"></path>
                <g id="Group-9">
                    <mask id="mask-2" fill="white">
                        <use xlink:href="#path-1"></use>
                    </mask>
                    <g id="Clip-8"></g>
                    <path d="M24.7486393,46.4708824 C13.0299822,46.4708824 3.49201426,36.8385294 3.49201426,25.0002941 C3.49201426,22.2885294 4.01607843,19.7002941 4.9273678,17.3091176 C11.5742484,16.7973529 17.5631373,13.9355882 22.081735,9.52676471 C27.7154248,16.5855882 36.1761497,21.2032353 45.722852,21.7091176 C45.8888057,22.7826471 46.0023529,23.8767647 46.0023529,25.0002941 C46.0023529,36.8385294 36.464385,46.4708824 24.7486393,46.4708824 M49.2573737,21.715 C47.658978,9.46205882 37.3087106,0.000294117647 24.7486393,0.000294117647 C13.7287344,0.000294117647 4.40330362,7.27970588 1.19486631,17.3355882 C0.426238859,19.7532353 0.00116458705,22.3238235 0.00116458705,25.0002941 C0.00116458705,38.8091176 11.0822103,50.0002941 24.7486393,50.0002941 C38.4150683,50.0002941 49.4961141,38.8091176 49.4961141,25.0002941 C49.4961141,23.8826471 49.3971242,22.7914706 49.2573737,21.715" id="Fill-7" fill="#000000" mask="url(#mask-2)"></path>
                </g>
                <line x1="30.9294789" y1="28.8306035" x2="36.743205" y2="24.1685142" id="Path-2" stroke="#000000" stroke-width="3" stroke-linecap="round"></line>
                <line x1="36.8403097" y1="28.7040541" x2="30.8323742" y2="24.2950635" id="Path-2" stroke="#000000" stroke-width="3" stroke-linecap="round"></line>
                <line x1="12.9294789" y1="28.8306035" x2="18.743205" y2="24.1685142" id="Path-2" stroke="#000000" stroke-width="3" stroke-linecap="round"></line>
                <line x1="18.8403097" y1="28.7040541" x2="12.8323742" y2="24.2950635" id="Path-2" stroke="#000000" stroke-width="3" stroke-linecap="round"></line>
            </g>
        </g>
    </g>
</svg>