<?xml version="1.0" encoding="UTF-8"?>
<svg width="50px" height="50px" viewBox="0 0 50 50" version="1.1" xmlns="http://www.w3.org/2000/svg" xmlns:xlink="http://www.w3.org/1999/xlink">
    <title>양호</title>
    <defs>
        <polygon id="path-1" points="0.316242199 0 49.0175409 0 49.0175409 49.6952028 0.316242199 49.6952028"></polygon>
    </defs>
    <g id="Page-1" stroke="none" stroke-width="1" fill="none" fill-rule="evenodd">
        <g id="25(11/24일-정리)" transform="translate(-50.000000, -313.000000)">
            <g id="Group" transform="translate(50.000000, 313.000000)">
                <g id="Group-9" transform="translate(0.333108, 0.000000)">
                    <mask id="mask-2" fill="white">
                        <use xlink:href="#path-1"></use>
                    </mask>
                    <g id="Clip-8"></g>
                    <path d="M3.75398093,24.8476014 C3.75398093,22.1523674 4.26677696,19.5799099 5.16345381,17.2033099 C11.7066165,16.6946649 17.5994737,13.8503453 22.0456158,9.46839775 C27.5861047,16.4841911 35.9140268,21.0736892 45.3076479,21.5764877 C45.4709404,22.643473 45.582667,23.7309209 45.582667,24.8476014 C45.582667,36.6136714 36.1976402,46.1873061 24.6668916,46.1873061 C13.1390077,46.1873061 3.75398093,36.6136714 3.75398093,24.8476014 Z M24.6668916,0 C13.8265554,0 4.647793,7.23503687 1.49366772,17.2296191 C0.734500412,19.6325283 0.316242199,22.1874464 0.316242199,24.8476014 C0.316242199,38.5722471 11.2196035,49.6952028 24.6668916,49.6952028 C38.1170443,49.6952028 49.0175409,38.5722471 49.0175409,24.8476014 C49.0175409,23.7367674 48.9230031,22.6522427 48.7854935,21.5823342 C47.2127281,9.40408631 37.0284271,0 24.6668916,0 Z" id="Fill-7" fill="#000000" mask="url(#mask-2)"></path>
                    <path d="M18.5833903,26.1553699 C18.5833903,24.3495163 17.149094,22.8859486 15.3793575,22.8859486 C13.609621,22.8859486 12.1753247,24.3495163 12.1753247,26.1553699 C12.1753247,27.9612235 13.609621,29.4247911 15.3793575,29.4247911 C17.149094,29.4247911 18.5833903,27.9612235 18.5833903,26.1553699" id="Fill-1" fill="#000000" mask="url(#mask-2)"></path>
                    <path d="M35.8851675,26.1553699 C35.8851675,24.3495163 34.4515181,22.8859486 32.6825799,22.8859486 C30.9107512,22.8859486 29.4771018,24.3495163 29.4771018,26.1553699 C29.4771018,27.9612235 30.9107512,29.4247911 32.6825799,29.4247911 C34.4515181,29.4247911 35.8851675,27.9612235 35.8851675,26.1553699" id="Fill-3" fill="#000000" mask="url(#mask-2)"></path>
                    <path d="M26.9771018,37.851935 C26.9771018,35.7853322 25.7466102,34.1104384 24.2283423,34.1104384 C22.7075935,34.1104384 21.4771018,35.7853322 21.4771018,37.851935 C21.4771018,39.9185378 22.7075935,41.5934316 24.2283423,41.5934316 C25.7466102,41.5934316 26.9771018,39.9185378 26.9771018,37.851935" id="Fill-3" fill="#000000" mask="url(#mask-2)"></path>
                </g>
            </g>
        </g>
    </g>
</svg>