<?xml version="1.0" encoding="UTF-8"?>
<svg width="100px" height="98px" viewBox="0 0 100 98" version="1.1" xmlns="http://www.w3.org/2000/svg" xmlns:xlink="http://www.w3.org/1999/xlink">
    <title>Group 10</title>
    <defs>
        <polygon id="path-1" points="0.632484399 0 98.0350818 0 98.0350818 97.4025974 0.632484399 97.4025974"></polygon>
        <polygon id="path-3" points="0 0.105866667 27.5900783 0.105866667 27.5900783 34.4981407 0 34.4981407"></polygon>
    </defs>
    <g id="Symbols" stroke="none" stroke-width="1" fill="none" fill-rule="evenodd">
        <g id="?">
            <g id="Group-9" transform="translate(0.666217, 0.000000)">
                <mask id="mask-2" fill="white">
                    <use xlink:href="#path-1"></use>
                </mask>
                <g id="Clip-8"></g>
                <path d="M7.50796186,48.7012987 C7.50796186,43.4186402 8.53355392,38.3766234 10.3269076,33.7184874 C23.4132331,32.7215432 35.1989473,27.1466769 44.0912315,18.5580596 C55.1722094,32.3090145 71.8280535,41.3044309 90.6152957,42.289916 C90.9418809,44.381207 91.1653339,46.512605 91.1653339,48.7012987 C91.1653339,71.762796 72.3952804,90.5271199 49.3337831,90.5271199 C26.2780153,90.5271199 7.50796186,71.762796 7.50796186,48.7012987 Z M49.3337831,0 C27.6531108,0 9.295586,14.1806723 2.98733543,33.7700535 C1.46900082,38.4797555 0.632484399,43.487395 0.632484399,48.7012987 C0.632484399,75.6016043 22.4392071,97.4025974 49.3337831,97.4025974 C76.2340887,97.4025974 98.0350818,75.6016043 98.0350818,48.7012987 C98.0350818,46.5240642 97.8460062,44.3983957 97.5709871,42.3013751 C94.4254561,18.4320092 74.0568541,0 49.3337831,0 Z" id="Fill-7" fill="#000000" mask="url(#mask-2)"></path>
            </g>
            <g id="Group-6" transform="translate(36.000000, 34.000000)">
                <g id="Group-3">
                    <mask id="mask-4" fill="white">
                        <use xlink:href="#path-3"></use>
                    </mask>
                    <g id="Clip-2"></g>
                    <path d="M7.65924444,13.9016441 L-0.0012122615,13.9016441 C-0.0012122615,13.9016441 -0.1862,0.436706207 13.7842444,0.107023448 C27.7601333,-0.216875402 27.5695778,12.7853499 27.5695778,12.7853499 C27.5695778,12.7853499 28.0378,17.8462694 24.4989111,21.0100671 C21.4173556,24.162297 18.0908,26.7187844 17.6280222,29.8363108 C17.1706889,32.9596211 17.0726889,34.4981407 17.0726889,34.4981407 L9.15102222,34.4981407 C9.15102222,34.4981407 8.55757778,29.8016074 10.5556889,25.5388671 C12.8804667,21.1257453 15.4829111,18.4593637 17.2305778,17.117497 C19.4083556,15.6773039 21.6188,7.87481195 13.8332444,7.87481195 C7.83891111,7.87481195 7.65924444,13.9016441 7.65924444,13.9016441" id="Fill-1" fill="#000000" mask="url(#mask-4)"></path>
                </g>
                <path d="M12.5517241,37.6551724 C15.2165517,37.6551724 17.3793103,39.817931 17.3793103,42.4827586 C17.3793103,45.1475862 15.2165517,47.3103448 12.5517241,47.3103448 C9.88689655,47.3103448 7.72413793,45.1475862 7.72413793,42.4827586 C7.72413793,39.817931 9.88689655,37.6551724 12.5517241,37.6551724" id="Fill-4" fill="#000000"></path>
            </g>
        </g>
    </g>
</svg>