<?xml version="1.0" encoding="UTF-8"?>
<svg width="30px" height="30px" viewBox="0 0 30 30" version="1.1" xmlns="http://www.w3.org/2000/svg" xmlns:xlink="http://www.w3.org/1999/xlink">
    <title>Filled / user</title>
    <defs>
        <rect id="path-1" x="0" y="0" width="314" height="38" rx="4"></rect>
        <filter x="-2.2%" y="-13.2%" width="104.5%" height="136.8%" filterUnits="objectBoundingBox" id="filter-2">
            <feOffset dx="0" dy="2" in="SourceAlpha" result="shadowOffsetOuter1"></feOffset>
            <feGaussianBlur stdDeviation="2" in="shadowOffsetOuter1" result="shadowBlurOuter1"></feGaussianBlur>
            <feComposite in="shadowBlurOuter1" in2="SourceAlpha" operator="out" result="shadowBlurOuter1"></feComposite>
            <feColorMatrix values="0 0 0 0 0.129411765   0 0 0 0 0.145098039   0 0 0 0 0.160784314  0 0 0 0.06 0" type="matrix" in="shadowBlurOuter1"></feColorMatrix>
        </filter>
        <filter x="-4.3%" y="-2.4%" width="108.6%" height="104.8%" filterUnits="objectBoundingBox" id="filter-3">
            <feOffset dx="0" dy="0" in="SourceAlpha" result="shadowOffsetOuter1"></feOffset>
            <feGaussianBlur stdDeviation="2.5" in="shadowOffsetOuter1" result="shadowBlurOuter1"></feGaussianBlur>
            <feColorMatrix values="0 0 0 0 0   0 0 0 0 0   0 0 0 0 0  0 0 0 0.1 0" type="matrix" in="shadowBlurOuter1" result="shadowMatrixOuter1"></feColorMatrix>
            <feMerge>
                <feMergeNode in="shadowMatrixOuter1"></feMergeNode>
                <feMergeNode in="SourceGraphic"></feMergeNode>
            </feMerge>
        </filter>
    </defs>
    <g id="Page-1" stroke="none" stroke-width="1" fill="none" fill-rule="evenodd">
        <g id="23" transform="translate(-17.000000, -291.000000)">
            <rect fill="#FFFFFF" x="0" y="0" width="360" height="720"></rect>
            <g id="bg" transform="translate(23.000000, 65.000000)">
                <g id="1" transform="translate(0.000000, 93.000000)">
                    <g id="BG" transform="translate(0.000000, 146.000000)">
                        <use fill="black" fill-opacity="1" filter="url(#filter-2)" xlink:href="#path-1"></use>
                        <rect stroke="#CDD1D7" stroke-width="0.794117647" stroke-linejoin="square" fill="#FFFFFF" fill-rule="evenodd" x="0.397058824" y="0.397058824" width="313.205882" height="37.2058824" rx="4"></rect>
                    </g>
                </g>
            </g>
            <rect id="Rectangle" fill="#FFFFFF" x="0" y="65" width="244" height="655"></rect>
            <g id="LNB" filter="url(#filter-3)" transform="translate(0.000000, 81.000000)" fill="#8E8E93">
                <g id="5" transform="translate(0.000000, 200.000000)">
                    <g id="Filled-/-user" transform="translate(20.000000, 13.000000)">
                        <path d="M12.5033964,2.12220302 C13.0890895,2.1235164 13.5770083,2.12729703 13.6153267,2.13354492 C13.9170845,2.18305656 14.1668404,2.39516604 14.2643257,2.68505856 L14.2643257,2.68505856 L14.9265816,4.65292968 C15.3060493,4.80161124 15.6723336,4.97797848 16.0224312,5.18071284 L16.0224312,5.18071284 L17.949726,4.45898448 C18.0438422,4.42412112 18.1418402,4.40698248 18.2390327,4.40698248 C18.4403022,4.40698248 18.6384955,4.4802246 18.7925971,4.61953128 C19.6071968,5.35532232 20.2956001,6.21782232 20.8385444,7.1833008 C20.9900826,7.45239264 20.9786568,7.78388676 20.808442,8.04228516 L20.808442,8.04228516 L19.6770698,9.75922848 C19.7967475,10.1455078 19.8870552,10.5421874 19.946894,10.9450195 L19.946894,10.9450195 L21.7107857,11.999414 C21.9756294,12.1577636 22.1300239,12.4501465 22.1114204,12.7580567 C22.04477,13.861377 21.8003609,14.9386231 21.384272,15.9596192 C21.267817,16.2455567 21.0015816,16.4427247 20.6941109,16.4707032 L20.6941109,16.4707032 L18.6445747,16.6558595 C18.4167182,16.9895508 18.1633003,17.3066896 17.8862983,17.6044922 L17.8862983,17.6044922 L18.1608101,19.6442872 C18.2020454,19.95 18.06977,20.2527833 17.8175239,20.4301758 C16.914814,21.0651856 15.9199652,21.5450684 14.8613227,21.8562012 C14.7846382,21.8787599 14.7061957,21.8898926 14.6284126,21.8898926 C14.4065621,21.8898926 14.1901314,21.8002442 14.0320747,21.6354493 L14.0320747,21.6354493 L12.5918404,20.1320802 C12.5321724,20.1339845 12.400727,20.135254 12.2453695,20.1358888 L11.7554254,20.1358888 C11.6001085,20.135254 11.4687446,20.1339845 11.4091987,20.1320802 L11.4091987,20.1320802 L9.97006296,21.6350099 C9.8121528,21.8002442 9.59513568,21.8904786 9.37372452,21.8904786 C9.29608776,21.8904786 9.21786516,21.8793458 9.14147352,21.8564942 C8.0850282,21.5465333 7.0902528,21.0673829 6.18461316,20.4323731 C5.93200092,20.2552735 5.79935928,19.9521973 5.84059464,19.6461914 L5.84059464,19.6461914 L6.1151064,17.6059571 C5.83773828,17.3078615 5.58402732,16.9905763 5.35646388,16.6573243 L5.35646388,16.6573243 L3.3076602,16.4724611 C3.00018948,16.4444826 2.73395412,16.247754 2.61749904,15.9618166 C2.20141032,14.9425782 1.95626868,13.8657716 1.88859288,12.7612794 C1.86991608,12.4533692 2.02401768,12.1605469 2.2888614,12.0021973 L2.2888614,12.0021973 L4.05311904,10.9460449 C4.112958,10.5433594 4.20289932,10.1465332 4.32257712,9.7595214 L4.32257712,9.7595214 L3.191205,8.04404292 C3.0213564,7.786377 3.00956436,7.45488276 3.16073628,7.185498 C3.70119036,6.22250976 4.38922752,5.35957032 5.20558488,4.62099612 C5.3600526,4.48139652 5.5589784,4.40786136 5.76039444,4.40786136 C5.85751356,4.40786136 5.95521864,4.425 6.04882224,4.46000976 L6.04882224,4.46000976 L7.97684952,5.18144532 C8.32804584,4.97827152 8.69462304,4.80161136 9.0734316,4.65292968 L9.0734316,4.65292968 L9.7360542,2.68505856 C9.8338326,2.39560548 10.0832954,2.1833496 10.3846871,2.13398436 C10.4232348,2.12762185 10.9112932,2.12372658 11.4970361,2.12229856 Z M12.0113959,3.54960936 C11.5701118,3.54960936 11.2158394,3.55224612 10.9623481,3.55561524 L10.9623481,3.55561524 L10.4381538,5.1124512 C10.3023629,5.5155762 9.9954048,5.83798824 9.59953032,5.99340816 C9.28883688,6.11528316 8.98554108,6.26147448 8.69813868,6.42788076 C8.47628808,6.55620108 8.22711816,6.62153316 7.97677632,6.62153316 C7.80641508,6.62153316 7.63554096,6.59121084 7.47213768,6.53012688 L7.47213768,6.53012688 L5.9024844,5.942871 C5.4066348,6.43110348 4.97164944,6.97675776 4.60441308,7.57133784 L4.60441308,7.57133784 L5.52470112,8.966748 C5.76185928,9.32636724 5.82558,9.77343744 5.69828508,10.184912 C5.60087292,10.5001464 5.5265322,10.8273924 5.47745988,11.1577147 C5.41403208,11.5842773 5.16281136,11.9600096 4.79271864,12.1816405 L4.79271864,12.1816405 L3.35621964,13.0415038 C3.42828996,13.7368651 3.58312392,14.4175781 3.8183778,15.0726562 L3.8183778,15.0726562 L5.48588268,15.2232421 C5.91434952,15.2619139 6.30304584,15.4899901 6.54562392,15.8453612 C6.7318056,16.1179686 6.94171764,16.3803222 7.1693544,16.6249511 C7.46290908,16.9404785 7.59972552,17.3708496 7.5422304,17.797998 L7.5422304,17.797998 L7.31869524,19.4594238 C7.90712304,19.8360352 8.53554096,20.1388184 9.1942812,20.363086 L9.1942812,20.363086 L10.3691598,19.1361329 C10.6411813,18.8519532 11.0171334,18.6919922 11.4091256,18.6919922 L11.4091256,18.6919922 L12.5919137,18.6919922 C12.9838326,18.6919922 13.3595651,18.8519531 13.6316598,19.1358398 L13.6316598,19.1358398 L14.8072702,20.363086 C15.4675484,20.138086 16.09582,19.8348634 16.6827828,19.458252 L16.6827828,19.458252 L16.4591743,17.7965332 C16.4016792,17.3695313 16.5384956,16.9393067 16.8319038,16.6237793 C17.0586617,16.3800293 17.2685005,16.1175293 17.4554146,15.84375 C17.6979926,15.4886719 18.0866158,15.2604493 18.5150093,15.2217774 L18.5150093,15.2217774 L20.1829536,15.0710449 C20.4179879,14.4152344 20.5724556,13.7346679 20.6440133,13.0394531 L20.6440133,13.0394531 L19.2081002,12.1810547 C18.837568,11.9595703 18.585981,11.5836914 18.5225533,11.1566894 C18.4737007,10.8276856 18.3993599,10.500879 18.3015816,10.1853516 C18.1739938,9.77373048 18.2374948,9.32666016 18.4746529,8.96689452 L18.4746529,8.96689452 L19.3950875,7.57001952 C19.026606,6.97441404 18.5914742,6.42890628 18.096357,5.9416992 L18.096357,5.9416992 L16.5274361,6.529248 C16.3640327,6.59047836 16.192939,6.62080068 16.0225044,6.62080068 C15.7719428,6.62080068 15.5226265,6.55532208 15.3006294,6.42670884 C15.0148384,6.26118156 14.7122749,6.11557608 14.4012886,5.99370108 C14.0049018,5.83842768 13.6975776,5.5157226 13.5617866,5.11215816 L13.5617866,5.11215816 L13.037812,3.5553222 C12.7951606,3.5520996 12.4539984,3.54960936 12.0113959,3.54960936 Z M12.0001842,8.21096196 C14.1506779,8.21096196 15.8999702,9.9603252 15.8999702,12.110748 C15.8999702,14.2613125 14.1506778,16.010962 12.0001842,16.010962 C9.84961848,16.010962 8.09996964,14.2613125 8.09996964,12.110748 C8.09996964,9.96032532 9.84961848,8.21096196 12.0001842,8.21096196 Z M12.0001705,9.47089512 C10.5444362,9.47089512 9.35996988,10.6550936 9.35996988,12.1107616 C9.35996988,13.5665622 10.5444362,14.7510292 12.0001705,14.7510292 C13.4558372,14.7510292 14.63997,13.5665623 14.63997,12.1107616 C14.63997,10.6550936 13.4558372,9.47089512 12.0001705,9.47089512 Z" id="Combined-Shape"></path>
                    </g>
                </g>
            </g>
        </g>
    </g>
</svg>