<?xml version="1.0" encoding="UTF-8"?>
<svg width="20px" height="20px" viewBox="0 0 20 20" version="1.1" xmlns="http://www.w3.org/2000/svg" xmlns:xlink="http://www.w3.org/1999/xlink">
    <title>info</title>
    <g id="Page-1" stroke="none" stroke-width="1" fill="none" fill-rule="evenodd">
        <g id="06(11/20일-정리)" transform="translate(-86.000000, -482.000000)">
            <rect id="Rectangle" fill-opacity="0.6" fill="#000000" x="0" y="0" width="359" height="725"></rect>
            <polygon id="Rectangle-Copy-7" fill="#FFFFFF" points="0 65 360 65 360 720 0 720"></polygon>
            <g id="2" transform="translate(32.000000, 482.000000)" fill="#2A2C2E" font-family="AppleSDGothicNeo-Regular, Apple SD Gothic Neo" font-size="12" font-weight="normal" line-spacing="27">
                <text id="기준-정보">
                    <tspan x="0" y="11">기준 정보 </tspan>
                </text>
            </g>
            <g id="info" transform="translate(86.000000, 482.000000)">
                <path d="M10,0.75 C11.7474925,0.75 13.3819021,1.23435762 14.7759673,2.07660743 C16.2187488,2.94829004 17.4043061,4.20279644 18.1917757,5.69944268 C18.867759,6.98420071 19.25,8.44747767 19.25,10 C19.25,12.554317 18.2146585,14.866817 16.5407377,16.5407377 C14.866817,18.2146585 12.554317,19.25 10,19.25 C7.44568303,19.25 5.13318303,18.2146585 3.45926227,16.5407377 C1.78534152,14.866817 0.75,12.554317 0.75,10 C0.75,7.44568303 1.78534152,5.13318303 3.45926227,3.45926227 C5.13318303,1.78534152 7.44568303,0.75 10,0.75 Z" id="Oval" stroke="#979797" stroke-width="1.5" fill="#FFFFFF"></path>
                <path d="M10.7101176,8.41786278 C10.7101176,8.41786278 11.3948235,8.46021572 11.2889412,9.06962749 C11.156,9.83198043 10.4818824,13.2990393 10.4818824,13.2990393 C10.4818824,13.2990393 10.1324706,14.510804 11.1065882,14.1355098 C11.9395294,13.8131569 11.8877647,14.208451 11.7854118,14.3731569 C11.6254118,14.6343334 11.2901176,15.1449216 9.71011765,15.1272745 C8.13129412,15.108451 8.19482353,13.9143334 8.25952941,13.5472745 C8.32423529,13.1802157 8.97482353,9.65786278 8.97482353,9.65786278 C8.97482353,9.65786278 9.04305882,9.13433337 8.55247059,9.05198043 C7.96305882,8.95198043 7.91129412,8.41786278 8.45129412,8.41786278 L10.7101176,8.41786278 Z" id="Fill-4" fill="#979797"></path>
                <path d="M10.2628235,4.48912243 C9.57811765,4.48912243 9.024,5.04441655 9.024,5.72912243 C9.024,6.41382831 9.57811765,6.96912243 10.2628235,6.96912243 C10.9475294,6.96912243 11.5028235,6.41382831 11.5028235,5.72912243 C11.5028235,5.04441655 10.9475294,4.48912243 10.2628235,4.48912243 Z" id="Fill-6" fill="#979797"></path>
            </g>
        </g>
    </g>
</svg>