<?xml version="1.0" encoding="UTF-8"?>
<svg width="35px" height="36px" viewBox="0 0 35 36" version="1.1" xmlns="http://www.w3.org/2000/svg" xmlns:xlink="http://www.w3.org/1999/xlink">
    <title>Group 3</title>
    <defs>
        <polygon id="path-1" points="0.0008 0.0002 34 0.0002 34 34 0.0008 34"></polygon>
        <filter x="-4.3%" y="-2.4%" width="108.6%" height="104.8%" filterUnits="objectBoundingBox" id="filter-3">
            <feOffset dx="0" dy="0" in="SourceAlpha" result="shadowOffsetOuter1"></feOffset>
            <feGaussianBlur stdDeviation="2.5" in="shadowOffsetOuter1" result="shadowBlurOuter1"></feGaussianBlur>
            <feColorMatrix values="0 0 0 0 0   0 0 0 0 0   0 0 0 0 0  0 0 0 0.1 0" type="matrix" in="shadowBlurOuter1" result="shadowMatrixOuter1"></feColorMatrix>
            <feMerge>
                <feMergeNode in="shadowMatrixOuter1"></feMergeNode>
                <feMergeNode in="SourceGraphic"></feMergeNode>
            </feMerge>
        </filter>
        <polygon id="path-4" points="0 0 19 0 19 20 0 20"></polygon>
    </defs>
    <g id="Page-1" stroke="none" stroke-width="1" fill="none" fill-rule="evenodd">
        <g id="23" transform="translate(-16.000000, -240.000000)">
            <g id="bg" transform="translate(23.000000, 65.000000)">
                <g id="1" transform="translate(0.000000, 93.000000)">
                    <g id="Group-3" transform="translate(1.000000, 41.000000)">
                        <rect id="Rectangle-Copy" stroke="#CDD1D7" fill="#FFFFFF" x="0.5" y="0.5" width="311" height="84" rx="4"></rect>
                        <g id="나쁨" transform="translate(15.000000, 25.000000)">
                            <circle id="Oval" fill="#FFFFFF" cx="17" cy="17" r="17"></circle>
                            <g id="Group-10">
                                <path d="M12.8367347,18.0408163 C12.8367347,16.6994032 11.7495764,15.6122449 10.4103551,15.6122449 C9.06675017,15.6122449 7.97959184,16.6994032 7.97959184,18.0408163 C7.97959184,19.3822294 9.06675017,20.4693878 10.4103551,20.4693878 C11.7495764,20.4693878 12.8367347,19.3822294 12.8367347,18.0408163" id="Fill-1" fill="#000000"></path>
                                <path d="M25.3265306,18.0408163 C25.3265306,16.6994032 24.2393723,15.6122449 22.8979592,15.6122449 C21.5565461,15.6122449 20.4693878,16.6994032 20.4693878,18.0408163 C20.4693878,19.3822294 21.5565461,20.4693878 22.8979592,20.4693878 C24.2393723,20.4693878 25.3265306,19.3822294 25.3265306,18.0408163" id="Fill-3" fill="#000000"></path>
                                <path d="M22.7698474,27.755102 C22.5579208,27.755102 22.3501094,27.6840752 22.1896213,27.5420215 C19.6053521,25.2600568 15.1260893,25.2127056 12.4944967,27.4382131 C12.1652904,27.7150356 11.6467906,27.7059296 11.327872,27.4127163 C11.015126,27.1213241 11.0295288,26.6605603 11.3566776,26.3837377 C12.9595006,25.0305855 15.0643631,24.2857143 17.2782753,24.2857143 C19.5703739,24.2857143 21.726675,25.0761155 23.3500734,26.5112218 C23.6710495,26.7953292 23.6731071,27.2579142 23.3521309,27.5420215 C23.1916429,27.6840752 22.9817739,27.755102 22.7698474,27.755102" id="Fill-5" fill="#000000"></path>
                                <g id="Group-9">
                                    <mask id="mask-2" fill="white">
                                        <use xlink:href="#path-1"></use>
                                    </mask>
                                    <g id="Clip-8"></g>
                                    <path d="M17.0008,31.6002 C8.9508,31.6002 2.3988,25.0502 2.3988,17.0002 C2.3988,15.1562 2.7588,13.3962 3.3848,11.7702 C7.9508,11.4222 12.0648,9.4762 15.1688,6.4782 C19.0388,11.2782 24.8508,14.4182 31.4088,14.7622 C31.5228,15.4922 31.6008,16.2362 31.6008,17.0002 C31.6008,25.0502 25.0488,31.6002 17.0008,31.6002 M33.8368,14.7662 C32.7388,6.4342 25.6288,0.0002 17.0008,0.0002 C9.4308,0.0002 3.0248,4.9502 0.8208,11.7882 C0.2928,13.4322 0.0008,15.1802 0.0008,17.0002 C0.0008,26.3902 7.6128,34.0002 17.0008,34.0002 C26.3888,34.0002 34.0008,26.3902 34.0008,17.0002 C34.0008,16.2402 33.9328,15.4982 33.8368,14.7662" id="Fill-7" fill="#000000" mask="url(#mask-2)"></path>
                                </g>
                            </g>
                        </g>
                    </g>
                </g>
            </g>
            <rect id="Rectangle" fill="#FFFFFF" x="0" y="65" width="244" height="655"></rect>
            <g id="LNB" filter="url(#filter-3)" transform="translate(0.000000, 81.000000)">
                <g id="4" transform="translate(0.000000, 150.000000)">
                    <g id="Group-3" transform="translate(24.000000, 17.000000)">
                        <mask id="mask-5" fill="white">
                            <use xlink:href="#path-4"></use>
                        </mask>
                        <g id="Clip-2"></g>
                        <path d="M15.72761,18.5083354 C14.7572205,18.5083354 13.9655538,17.7258024 13.9655538,16.7666086 C13.9655538,15.8061707 14.7572205,15.0236377 15.72761,15.0236377 C16.6979995,15.0236377 17.4896661,15.8061707 17.4896661,16.7666086 C17.4896661,17.7258024 16.6979995,18.5083354 15.72761,18.5083354 M3.27239004,11.744215 C2.30074192,11.744215 1.50907525,10.961682 1.50907525,10.0012441 C1.50907525,9.04205026 2.30074192,8.25951729 3.27239004,8.25951729 C4.24277954,8.25951729 5.03444621,9.04205026 5.03444621,10.0012441 C5.03444621,10.961682 4.24277954,11.744215 3.27239004,11.744215 M15.72761,1.49166459 C16.6979995,1.49166459 17.4896661,2.27419756 17.4896661,3.23463548 C17.4896661,4.19382931 16.6979995,4.97636228 15.72761,4.97636228 C14.7572205,4.97636228 13.9655538,4.19382931 13.9655538,3.23463548 C13.9655538,2.27419756 14.7572205,1.49166459 15.72761,1.49166459 M15.72761,13.5319731 C14.7471516,13.5319731 13.8761924,13.969893 13.2770933,14.6466783 L6.39248808,10.9218711 C6.48059089,10.6282657 6.54352146,10.3234635 6.54352146,10.0012441 C6.54352146,9.68026872 6.4818495,9.37546653 6.39248808,9.08186116 L13.274576,5.35083354 C13.8736751,6.03010699 14.745893,6.46802687 15.72761,6.46802687 C17.5324589,6.46802687 19,5.01741727 19,3.23463548 C19,1.4506096 17.5324589,0 15.72761,0 C13.922761,0 12.4552199,1.4506096 12.4552199,3.23463548 C12.4552199,3.5095795 12.5017886,3.7733267 12.5672364,4.02960936 L5.64235559,7.7842747 C5.04577371,7.16098532 4.20753842,6.76660861 3.27239004,6.76660861 C1.46754107,6.76660861 0,8.2184623 0,10.0012441 C0,11.78527 1.46754107,13.2358796 3.27239004,13.2358796 C4.20753842,13.2358796 5.04577371,12.8415029 5.64235559,12.2169694 L12.568495,15.9666584 C12.5017886,16.2241851 12.4552199,16.4879323 12.4552199,16.7666086 C12.4552199,18.5493904 13.922761,20 15.72761,20 C17.5324589,20 19,18.5493904 19,16.7666086 C19,14.9825827 17.5324589,13.5319731 15.72761,13.5319731" id="Fill-1" fill="#8E8E93" mask="url(#mask-5)"></path>
                    </g>
                </g>
            </g>
        </g>
    </g>
</svg>