<?xml version="1.0" encoding="UTF-8"?>
<svg width="16px" height="16px" viewBox="0 0 16 16" version="1.1" xmlns="http://www.w3.org/2000/svg" xmlns:xlink="http://www.w3.org/1999/xlink">
    <title>icon / 16 / search / outlineed</title>
    <g id="Page-1" stroke="none" stroke-width="1" fill="none" fill-rule="evenodd">
        <g id="10" transform="translate(-312.000000, -94.000000)">
            <g id="search-bar" transform="translate(24.000000, 83.000000)">
                <path d="M307,0.5 C308.518783,0.5 309.893783,1.11560847 310.889087,2.1109127 C311.884392,3.10621694 312.5,4.48121694 312.5,6 L312.5,6 L312.5,31 C312.5,32.5187831 311.884392,33.8937831 310.889087,34.8890873 C309.893783,35.8843915 308.518783,36.5 307,36.5 L307,36.5 L6,36.5 C4.48121694,36.5 3.10621694,35.8843915 2.1109127,34.8890873 C1.11560847,33.8937831 0.5,32.5187831 0.5,31 L0.5,31 L0.5,6 C0.5,4.48121694 1.11560847,3.10621694 2.1109127,2.1109127 C3.10621694,1.11560847 4.48121694,0.5 6,0.5 L6,0.5 Z" id="Rectangle-" stroke="#E5E5EA" fill="#FFFFFF"></path>
                <g id="Group" transform="translate(288.000000, 11.000000)">
                    <polygon id="Stroke-1" points="0 16 16 16 16 3.55271368e-15 0 3.55271368e-15"></polygon>
                    <path d="M2.13152,7.12344 C2.13152,4.40344 4.34512,2.19064 7.06512,2.19064 C9.78432,2.19064 11.99792,4.40344 11.99792,7.12344 C11.99792,9.84344 9.78432,12.05704 7.06512,12.05704 C4.34512,12.05704 2.13152,9.84344 2.13152,7.12344 L2.13152,7.12344 Z M15.11072,14.49144 L11.55472,10.93544 C12.42832,9.90664 12.95792,8.57784 12.95792,7.12344 C12.95792,3.86904 10.31952,1.23064 7.06512,1.23064 C3.80992,1.23064 1.17152,3.86904 1.17152,7.12344 C1.17152,10.37784 3.80992,13.01704 7.06512,13.01704 C8.51952,13.01704 9.84832,12.48744 10.87712,11.61304 L14.43232,15.16984 L15.11072,14.49144 Z" id="Fill-3" fill="#6D6E72"></path>
                </g>
            </g>
        </g>
    </g>
</svg>