<?xml version="1.0" encoding="UTF-8"?>
<svg width="48px" height="48px" viewBox="0 0 48 48" version="1.1" xmlns="http://www.w3.org/2000/svg" xmlns:xlink="http://www.w3.org/1999/xlink">
    <title>Buttons (Icon) / L / Basic Copy 2</title>
    <g id="Page-1" stroke="none" stroke-width="1" fill="none" fill-rule="evenodd">
        <g id="01-copy-2" transform="translate(-305.000000, -8.000000)">
            <g id="Navbar-/-Light-/-Mobile" transform="translate(1.000000, 0.000000)" fill="#FFFFFF00">
                <rect id="BG-2" x="0" y="0" width="360" height="64"></rect>
            </g>
            <g id="Buttons-(Icon)-/-L-/-Basic-Copy-2" transform="translate(305.000000, 8.000000)">
                <rect id="BG" fill="#FFFFFF00" x="0" y="0" width="48" height="48" rx="24"></rect>
                <g id="Icon-/-Filled-/-add" transform="translate(12.000000, 12.000000)" fill="#5B5C60">
                    <path d="M20.8096801,16.7815429 C20.7885864,16.7668945 18.7202258,15.3102539 18.7202258,13.3104492 L18.7167102,9.27216792 C18.7167102,5.5666992 15.7026476,2.55205068 11.9960071,2.55205068 C8.290539,2.55205068 5.27647644,5.56669908 5.27647644,9.27333972 L5.281164,13.3104492 C5.281164,15.2950195 3.209289,16.7680664 3.18819528,16.7821289 C2.93038272,16.9625976 2.81905464,17.2895508 2.91397656,17.5889648 C3.00772656,17.8889648 3.28546092,18.0934571 3.59952348,18.0934571 L8.33814648,18.0934571 C8.53692576,19.9166748 10.1609243,21.4479493 12.0182729,21.4479493 C13.8756215,21.4479493 15.4996205,19.9166749 15.6983999,18.0934571 L20.3995241,18.0934571 C20.7147584,18.0934571 20.9924928,17.8889648 21.0862428,17.588379 C21.1811646,17.2877929 21.0686646,16.9608398 20.8096801,16.7815429 Z M12.0182728,20.0079346 C10.9739856,20.0079346 9.99971808,19.1455078 9.80269656,18.0940429 L14.233849,18.0940429 C14.0368274,19.1455078 13.0625599,20.0079346 12.0182728,20.0079346 Z M5.3977656,16.6534424 C6.06654,15.841919 6.72117864,14.6937745 6.72117864,13.3087648 L6.7164912,9.27333996 C6.7164912,6.3612306 9.08485056,3.99206556 11.9960072,3.99206556 C14.9078237,3.99206556 17.2766957,6.36071796 17.2766957,9.27341316 L17.2802113,13.3104493 C17.2802113,14.6905518 17.9385853,15.8411867 18.6067006,16.6534424 L5.3977656,16.6534424 Z" id="Shape"></path>
                </g>
            </g>
        </g>
    </g>
</svg>