<?xml version="1.0" encoding="UTF-8"?>
<svg width="15px" height="19px" viewBox="0 0 15 19" version="1.1" xmlns="http://www.w3.org/2000/svg" xmlns:xlink="http://www.w3.org/1999/xlink">
    <title>Group 6</title>
    <defs>
        <polygon id="path-1" points="0 0.328 14.3562252 0.328 14.3562252 17.9997 0 17.9997"></polygon>
    </defs>
    <g id="Page-1" stroke="none" stroke-width="1" fill="none" fill-rule="evenodd">
        <g id="01-2" transform="translate(-23.000000, -156.000000)">
            <g id="Group-6" transform="translate(23.000000, 156.000000)">
                <path d="M7.1775,3.9006 C5.6585,3.9006 4.4275,5.1316 4.4275,6.6506 C4.4275,8.1696 5.6585,9.4006 7.1775,9.4006 C8.6975,9.4006 9.9275,8.1696 9.9275,6.6506 C9.9275,5.1316 8.6975,3.9006 7.1775,3.9006 M7.1775,4.9006 C8.1435,4.9006 8.9275,5.6856 8.9275,6.6506 C8.9275,7.6156 8.1435,8.4006 7.1775,8.4006 C6.2125,8.4006 5.4275,7.6156 5.4275,6.6506 C5.4275,5.6856 6.2125,4.9006 7.1775,4.9006" id="Fill-1" fill="#AAAAAF"></path>
                <g id="Group-5" transform="translate(0.000000, 0.672100)">
                    <mask id="mask-2" fill="white">
                        <use xlink:href="#path-1"></use>
                    </mask>
                    <g id="Clip-4"></g>
                    <path d="M1.1999,16.8017 L1.8049,14.4377 C1.8569,14.2357 2.0399,14.0937 2.2489,14.0937 L4.9589,14.0937 C5.2919,14.5757 5.6259,15.0407 5.9499,15.4837 C6.2399,15.8787 6.6879,16.1057 7.1789,16.1077 L7.1819,16.1077 C7.6719,16.1077 8.1189,15.8817 8.4109,15.4887 C8.7159,15.0777 9.0569,14.6067 9.4129,14.0937 L12.1069,14.0937 C12.3159,14.0937 12.4989,14.2357 12.5509,14.4377 L13.1579,16.8007 L1.1999,16.8017 Z M7.1789,1.5277 C9.6869,1.5277 11.7279,3.5687 11.7279,6.0777 C11.7279,8.0107 10.2879,10.9367 7.4479,14.7737 C7.3819,14.8627 7.2929,14.9077 7.1829,14.9077 C7.0719,14.9067 6.9829,14.8617 6.9179,14.7727 C5.8569,13.3277 2.6279,8.9297 2.6279,6.0777 C2.6279,3.5687 4.6699,1.5277 7.1789,1.5277 L7.1789,1.5277 Z M14.3179,16.5047 L13.7129,14.1397 C13.5239,13.4057 12.8639,12.8947 12.1069,12.8947 L10.2149,12.8947 C11.5959,10.7427 12.9289,8.1607 12.9289,6.0777 C12.9289,2.9067 10.3489,0.3277 7.1789,0.3277 C4.0079,0.3277 1.4289,2.9067 1.4289,6.0777 C1.4289,8.1037 2.6859,10.6057 4.1579,12.8947 L2.2489,12.8947 C1.4909,12.8947 0.8309,13.4057 0.6429,14.1407 L0.0379,16.5047 C-0.0551,16.8657 0.0239,17.2427 0.2529,17.5367 C0.4809,17.8317 0.8259,17.9997 1.1989,17.9997 L13.1579,17.9997 C13.5299,17.9997 13.8749,17.8317 14.1029,17.5367 C14.3329,17.2427 14.4109,16.8657 14.3179,16.5047 L14.3179,16.5047 Z" id="Fill-3" fill="#AAAAAF" mask="url(#mask-2)"></path>
                </g>
            </g>
        </g>
    </g>
</svg>