<?xml version="1.0" encoding="UTF-8"?>
<svg width="48px" height="48px" viewBox="0 0 48 48" version="1.1" xmlns="http://www.w3.org/2000/svg" xmlns:xlink="http://www.w3.org/1999/xlink">
    <title>BG</title>
    <g id="Page-1" stroke="none" stroke-width="1" fill="none" fill-rule="evenodd">
        <g id="[Marketing]-Product-info-1-/-Mobile-/-Menus-Copy-5" transform="translate(-300.000000, -8.000000)">
            <g id="Navbar-/-Light-/-Mobile" transform="translate(-2.000000, 0.000000)" fill="#FFFFFF00">
                <rect id="BG" x="0" y="0" width="360" height="64"></rect>
            </g>
            <g id="Buttons-(Icon)-/-L-/-Basic" transform="translate(300.000000, 8.000000)">
                <rect id="BG" x="0" y="0" width="48" height="48" rx="24"></rect>
                <g id="관심" transform="translate(12.000000, 13.000000)" fill="#5B5C60">
                    <path d="M11.5,14.8670655 C11.6394934,14.8670655 11.7802905,14.9019355 11.9041398,14.9741662 L16.6338796,17.6990061 L15.3836535,12.55942 C15.317166,12.290423 15.4123344,12.0077271 15.6326558,11.8271504 L19.8070292,8.37004083 L14.3029053,7.91922179 C14.0160964,7.89556001 13.7631831,7.72121011 13.6497632,7.46715739 L11.5,2.62023001 L9.3502368,7.46715739 C9.23681691,7.72121011 8.98390359,7.89556001 8.69709467,7.91922179 L3.19297082,8.37004083 L7.36734424,11.8271504 C7.58766563,12.0077271 7.68283405,12.290423 7.61634653,12.55942 L6.36612038,17.6990061 L11.0958602,14.9741662 C11.2197095,14.9019355 11.3605066,14.8670655 11.5,14.8670655 M17.8150109,19.9991795 C17.6742138,19.9991795 17.536024,19.9643096 17.410871,19.8920789 L11.5,16.4872743 L5.58912895,19.8920789 C5.32057151,20.0477484 4.98031184,20.0340495 4.72609485,19.8572089 C4.47057418,19.6803683 4.35324325,19.3752559 4.42364181,19.0838425 L5.98675041,12.6615392 L0.770739144,8.34139763 C0.532166272,8.14587667 0.440908889,7.83204684 0.538684656,7.54561485 C0.635156746,7.26042822 0.901106833,7.05743511 1.21398929,7.03252798 L8.09349227,6.4683815 L10.7790667,0.414703704 C11.0267653,-0.138234568 11.9732347,-0.138234568 12.2209333,0.414703704 L14.9065077,6.4683815 L21.7860107,7.03252798 C22.0988932,7.05743511 22.3648433,7.26042822 22.4613153,7.54561485 C22.5590911,7.83204684 22.4678337,8.14587667 22.2292609,8.34139763 L17.0132496,12.6615392 L18.5763582,19.0838425 C18.6467567,19.3752559 18.5294258,19.6803683 18.2739052,19.8572089 C18.1383228,19.951856 17.9766668,19.9991795 17.8150109,19.9991795" id="Fill-1"></path>
                </g>
            </g>
        </g>
    </g>
</svg>